<svg id="Calque_1" data-name="Calque 1" xmlns="http://www.w3.org/2000/svg" viewBox="0 0 497 643"><defs><style>.cls-1{fill:#00e727;}</style></defs><title>Logo-raimond-code</title><rect class="cls-1" x="418.96" y="589" width="270.04" height="73" rx="9.77" transform="translate(856.96 1073) rotate(180)"/><path class="cls-1" d="M740.78,251H347.57a7.22,7.22,0,0,0-4.23,13.07L626.05,468.45a7.22,7.22,0,0,1,1.62,10.08L593.37,526a7.22,7.22,0,0,1-10.08,1.62L335.45,348.46A7.22,7.22,0,0,0,324,354.31V740.78a7.22,7.22,0,0,0,7.22,7.22H740.78a7.22,7.22,0,0,1,7.22,7.22v58.56a7.22,7.22,0,0,1-7.22,7.22H258.22a7.22,7.22,0,0,1-7.22-7.22V185.22a7.22,7.22,0,0,1,7.22-7.22H740.78a7.22,7.22,0,0,1,7.22,7.22v58.56A7.22,7.22,0,0,1,740.78,251Z" transform="translate(-251 -178)"/></svg>